<svg width="1528" height="229" viewBox="0 0 1528 229" fill="none" xmlns="http://www.w3.org/2000/svg">
<path d="M116.735 12C134.935 12 150.735 15 164.135 21C177.735 27 188.135 35.6 195.335 46.8C202.535 58 206.135 71.3 206.135 86.7C206.135 101.9 202.535 115.2 195.335 126.6C188.135 137.8 177.735 146.4 164.135 152.4C150.735 158.4 134.935 161.4 116.735 161.4H69.3348V222H30.3348V12H116.735ZM114.935 128.4C131.935 128.4 144.835 124.8 153.635 117.6C162.435 110.4 166.835 100.1 166.835 86.7C166.835 73.3 162.435 63 153.635 55.8C144.835 48.6 131.935 45 114.935 45H69.3348V128.4H114.935ZM346.111 225C324.711 225 305.411 220.4 288.211 211.2C271.011 201.8 257.511 188.9 247.711 172.5C237.911 155.9 233.011 137.4 233.011 117C233.011 96.6 237.911 78.2 247.711 61.8C257.511 45.2 271.011 32.3 288.211 23.1C305.411 13.7 324.711 8.99999 346.111 8.99999C367.511 8.99999 386.811 13.7 404.011 23.1C421.211 32.3 434.711 45.1 444.511 61.5C454.311 77.9 459.211 96.4 459.211 117C459.211 137.6 454.311 156.1 444.511 172.5C434.711 188.9 421.211 201.8 404.011 211.2C386.811 220.4 367.511 225 346.111 225ZM346.111 190.8C360.111 190.8 372.711 187.7 383.911 181.5C395.111 175.1 403.911 166.3 410.311 155.1C416.711 143.7 419.911 131 419.911 117C419.911 103 416.711 90.4 410.311 79.2C403.911 67.8 395.111 59 383.911 52.8C372.711 46.4 360.111 43.2 346.111 43.2C332.111 43.2 319.511 46.4 308.311 52.8C297.111 59 288.311 67.8 281.911 79.2C275.511 90.4 272.311 103 272.311 117C272.311 131 275.511 143.7 281.911 155.1C288.311 166.3 297.111 175.1 308.311 181.5C319.511 187.7 332.111 190.8 346.111 190.8ZM540.22 45H470.62V12H648.82V45H579.22V222H540.22V45ZM864.689 12V222H825.689V132H717.089V222H678.089V12H717.089V98.7H825.689V12H864.689ZM1173.5 12H1212.5V189H1322.3V222H1173.5V12ZM1510.59 189.3V222H1353.09V12H1506.39V44.7H1392.09V99.3H1493.49V131.4H1392.09V189.3H1510.59Z" fill="white"/>
<path d="M1077.34 71.7015C1077.34 101.701 1055.61 124.398 1030.7 124.398C1005.79 124.398 984.052 101.701 984.052 71.7015C984.052 41.7015 1005.79 19.0049 1030.7 19.0049C1055.61 19.0049 1077.34 41.7015 1077.34 71.7015Z" fill="#FCD44F" stroke="#FCD44F" stroke-width="18"/>
<path d="M1138.98 95.7891C1138.98 168.746 1085.56 227.888 1019.67 227.888C953.775 227.888 900.357 168.746 900.357 95.7891C900.357 22.8328 929.912 95.7891 995.807 95.7891C1061.7 95.7891 1138.98 22.8328 1138.98 95.7891Z" fill="#3B82F6"/>
</svg>
